<svg width="230" height="23" viewBox="0 0 230 23" fill="none" xmlns="http://www.w3.org/2000/svg">
<path d="M75.9772 5.63013H74.4612C74.1226 5.63013 73.8481 5.87409 73.8481 6.17505V21.5387C73.8481 21.8397 74.1226 22.0836 74.4612 22.0836H75.9772C76.3158 22.0836 76.5903 21.8397 76.5903 21.5387V6.17505C76.5903 5.87409 76.3158 5.63013 75.9772 5.63013Z" fill="#DDF812"/>
<path d="M86.6036 0.755127H63.8352C63.4966 0.755127 63.2222 0.999109 63.2222 1.30007V2.64767C63.2222 2.94862 63.4966 3.19259 63.8352 3.19259H86.6036C86.9422 3.19259 87.2167 2.94862 87.2167 2.64767V1.30007C87.2167 0.999109 86.9422 0.755127 86.6036 0.755127Z" fill="#DDF812"/>
<path d="M57.235 0.755127H34.4666C34.128 0.755127 33.8535 0.999109 33.8535 1.30007V2.64767C33.8535 2.94862 34.128 3.19259 34.4666 3.19259H57.235C57.5735 3.19259 57.848 2.94862 57.848 2.64767V1.30007C57.848 0.999109 57.5735 0.755127 57.235 0.755127Z" fill="#DDF812"/>
<path d="M57.2348 14.7712H49.0001C48.8289 14.7712 48.6659 14.8351 48.5499 14.9455L47.1416 16.2907C46.7771 16.6392 47.056 17.2087 47.5917 17.2087H57.232C57.5717 17.2087 57.8451 16.9632 57.8451 16.6638V15.3186C57.8451 15.0167 57.5689 14.7737 57.232 14.7737L57.2348 14.7712Z" fill="#DDF812"/>
<path d="M57.2352 19.6462H41.2794C40.7409 19.6462 40.4647 19.0742 40.832 18.7257L53.706 6.54818C54.0733 6.19962 53.7972 5.62769 53.2587 5.62769H51.0688C50.8976 5.62769 50.7374 5.6915 50.6187 5.80196L34.4778 21.1631C34.1106 21.5117 34.3895 22.0812 34.928 22.0812H57.238C57.5776 22.0812 57.851 21.8357 57.851 21.5363V20.1911C57.851 19.8892 57.5749 19.6462 57.238 19.6462H57.2352Z" fill="#DDF812"/>
<path d="M229.024 5.55896H227.508C227.169 5.55896 226.895 5.80294 226.895 6.1039V16.6638C226.895 16.9647 227.169 17.2087 227.508 17.2087H229.024C229.362 17.2087 229.637 16.9647 229.637 16.6638V6.1039C229.637 5.80294 229.362 5.55896 229.024 5.55896Z" fill="#DDF812"/>
<path d="M229.024 19.6461H227.508C227.169 19.6461 226.895 19.8901 226.895 20.191V21.5387C226.895 21.8396 227.169 22.0836 227.508 22.0836H229.024C229.362 22.0836 229.637 21.8396 229.637 21.5387V20.191C229.637 19.8901 229.362 19.6461 229.024 19.6461Z" fill="#DDF812"/>
<path d="M229.024 0.755127H227.508C227.169 0.755127 226.895 0.999109 226.895 1.30007V2.64767C226.895 2.94862 227.169 3.19259 227.508 3.19259H229.024C229.362 3.19259 229.637 2.94862 229.637 2.64767V1.30007C229.637 0.999109 229.362 0.755127 229.024 0.755127Z" fill="#DDF812"/>
<path d="M187.055 19.6462H185.539C185.2 19.6462 184.926 19.8901 184.926 20.1911V21.5387C184.926 21.8397 185.2 22.0836 185.539 22.0836H187.055C187.393 22.0836 187.668 21.8397 187.668 21.5387V20.1911C187.668 19.8901 187.393 19.6462 187.055 19.6462Z" fill="#DDF812"/>
<path d="M116.51 2.64521V1.30007C116.51 0.998145 116.234 0.755127 115.897 0.755127H92.5874V22.0124H92.5957V22.0836H115.897C116.237 22.0836 116.51 21.8381 116.51 21.5386V20.1935C116.51 19.8916 116.234 19.6486 115.897 19.6486H95.9454C95.6057 19.6486 95.3323 19.4031 95.3323 19.1036V3.74244C95.3323 3.44052 95.6085 3.1975 95.9454 3.1975H115.897C116.237 3.1975 116.51 2.95205 116.51 2.65258V2.64521Z" fill="#DDF812"/>
<path d="M100.201 5.63013H98.6873C98.3476 5.63013 98.0742 5.87558 98.0742 6.17505V16.6613C98.0742 16.9632 98.3504 17.2062 98.6873 17.2062H100.201C100.54 17.2062 100.814 16.9608 100.814 16.6613V11.05C100.814 10.7481 101.09 10.5051 101.427 10.5051H113.152C113.492 10.5051 113.765 10.2596 113.765 9.96011V8.61497C113.765 8.31305 113.489 8.07005 113.152 8.07005H101.427C101.087 8.07005 100.814 7.82457 100.814 7.52511V6.17997C100.814 5.87804 100.537 5.63503 100.201 5.63503V5.63013Z" fill="#DDF812"/>
<path d="M145.511 2.51272L144.346 1.51614C144.1 1.30504 143.705 1.31485 143.47 1.53822L125.689 18.4606C125.308 18.8214 124.626 18.5833 124.626 18.0875V1.29767C124.626 0.995749 124.35 0.752747 124.013 0.752747H122.5C122.16 0.752747 121.887 0.998204 121.887 1.29767V22.01H121.961L121.887 22.0812H125.391C125.559 22.0812 125.722 22.0198 125.838 21.9093L145.536 3.27857C145.765 3.06011 145.757 2.71891 145.514 2.51027L145.511 2.51272Z" fill="#DDF812"/>
<path d="M128.432 12.2552L129.945 10.8143C130.05 10.7136 130.11 10.5811 130.11 10.4412V1.30007C130.11 0.998145 129.834 0.755127 129.497 0.755127H127.984C127.644 0.755127 127.371 1.0006 127.371 1.30007V11.8821C127.371 12.3779 128.053 12.616 128.434 12.2552H128.432Z" fill="#DDF812"/>
<path d="M137.677 15.0855C137.428 14.8817 137.042 14.8915 136.81 15.11L135.774 16.0919C135.542 16.3128 135.553 16.6589 135.805 16.8651L141.938 21.9388C142.051 22.0321 142.2 22.0861 142.355 22.0861H144.578C145.136 22.0861 145.404 21.4798 144.998 21.1411L137.68 15.0879L137.677 15.0855Z" fill="#DDF812"/>
<path d="M13.7307 2.65263L0.100061 21.2392C-0.165041 21.6025 0.127676 22.0836 0.613696 22.0836H2.53292C2.74004 22.0836 2.93334 21.9903 3.04656 21.8357L6.26092 17.4566C6.37414 17.302 6.56744 17.2087 6.77455 17.2087H14.9679C15.175 17.2087 15.3683 17.302 15.4815 17.4566L18.6986 21.8357C18.8118 21.9903 19.0051 22.0836 19.2123 22.0836H21.1315C21.6203 22.0836 21.913 21.6025 21.6451 21.2392L14.8905 12.0196C14.6503 11.6906 14.1063 11.6882 13.8633 12.0196L12.8912 13.3303C12.7559 13.512 12.7559 13.7476 12.8912 13.9293C13.1591 14.2926 12.8636 14.7737 12.3776 14.7737H9.36482C8.87604 14.7737 8.58332 14.2926 8.85119 13.9293L13.728 7.28455C13.971 6.95317 14.515 6.95317 14.758 7.28455L25.4366 21.8382C25.5499 21.9928 25.7432 22.0861 25.9503 22.0861H27.864C28.3527 22.0861 28.6455 21.605 28.3776 21.2417L14.7552 2.65509C14.5122 2.32371 13.9682 2.32371 13.7252 2.65509L13.7307 2.65263Z" fill="#DDF812"/>
<path d="M164.803 2.65263L151.172 21.2392C150.907 21.6025 151.2 22.0836 151.686 22.0836H153.605C153.812 22.0836 154.006 21.9903 154.119 21.8357L157.333 17.4566C157.446 17.302 157.64 17.2087 157.847 17.2087H166.04C166.247 17.2087 166.441 17.302 166.554 17.4566L169.771 21.8357C169.884 21.9903 170.077 22.0836 170.285 22.0836H172.204C172.693 22.0836 172.985 21.6025 172.717 21.2392L165.963 12.0196C165.723 11.6906 165.179 11.6882 164.936 12.0196L163.963 13.3303C163.828 13.512 163.828 13.7476 163.963 13.9293C164.231 14.2926 163.936 14.7737 163.45 14.7737H160.437C159.948 14.7737 159.656 14.2926 159.923 13.9293L164.8 7.28455C165.043 6.95317 165.587 6.95317 165.83 7.28455L176.509 21.8382C176.622 21.9928 176.815 22.0861 177.023 22.0861H178.936C179.425 22.0861 179.718 21.605 179.45 21.2417L165.827 2.65509C165.584 2.32371 165.04 2.32371 164.797 2.65509L164.803 2.65263Z" fill="#DDF812"/>
<path d="M206.772 2.65263L193.141 21.2392C192.876 21.6025 193.169 22.0836 193.655 22.0836H195.574C195.781 22.0836 195.974 21.9903 196.088 21.8357L199.302 17.4566C199.415 17.302 199.608 17.2087 199.816 17.2087H208.009C208.216 17.2087 208.409 17.302 208.523 17.4566L211.74 21.8357C211.853 21.9903 212.046 22.0836 212.253 22.0836H214.172C214.661 22.0836 214.954 21.6025 214.686 21.2392L207.932 12.0196C207.691 11.6906 207.147 11.6882 206.904 12.0196L205.932 13.3303C205.797 13.512 205.797 13.7476 205.932 13.9293C206.2 14.2926 205.905 14.7737 205.419 14.7737H202.406C201.917 14.7737 201.624 14.2926 201.892 13.9293L206.769 7.28455C207.012 6.95317 207.556 6.95317 207.799 7.28455L218.478 21.8382C218.591 21.9928 218.784 22.0861 218.991 22.0861H220.905C221.394 22.0861 221.686 21.605 221.419 21.2417L207.796 2.65509C207.553 2.32371 207.009 2.32371 206.766 2.65509L206.772 2.65263Z" fill="#DDF812"/>
</svg>
