<svg width="432" height="497" viewBox="0 0 432 497" fill="none" xmlns="http://www.w3.org/2000/svg">
<path opacity="0.1" d="M59.1862 6.21923L-285.31 475.97C-292.01 485.151 -284.612 497.311 -272.329 497.311H-223.823C-218.588 497.311 -213.703 494.953 -210.841 491.045L-129.603 380.369C-126.741 376.461 -121.856 374.104 -116.621 374.104H90.4533C95.6877 374.104 100.573 376.461 103.435 380.369L184.743 491.045C187.604 494.953 192.49 497.311 197.724 497.311H246.23C258.584 497.311 265.982 485.151 259.212 475.97L88.4991 242.955C82.4272 234.642 68.678 234.58 62.5363 242.955L37.9692 276.084C34.5494 280.675 34.5494 286.63 37.9692 291.221C44.7391 300.403 37.2713 312.562 24.9878 312.562H-51.1558C-63.5091 312.562 -70.9072 300.403 -64.1373 291.221L59.1164 123.285C65.2581 114.91 79.0073 114.91 85.149 123.285L355.037 491.107C357.898 495.015 362.784 497.373 368.018 497.373H416.385C428.738 497.373 436.136 485.213 429.366 476.032L85.0793 6.28133C78.9375 -2.09378 65.1884 -2.09378 59.0466 6.28133L59.1862 6.21923Z" fill="#DDF812"/>
</svg>
